<svg width="169" height="179" viewBox="0 0 169 179" fill="none" xmlns="http://www.w3.org/2000/svg">
<path d="M117.511 6.88305L116.889 6.29431L120.84 2.12462L121.461 2.71336L117.511 6.88305ZM126.875 7.84243L122.924 12.0121L122.384 11.5004L125.196 8.53285C125.238 8.48832 125.284 8.44181 125.334 8.39332C125.385 8.34666 125.438 8.29903 125.491 8.25043L121.69 9.48192C121.552 9.53092 121.433 9.50774 121.332 9.41237L121.245 9.32983C121.144 9.23446 121.116 9.11734 121.159 8.97847L122.166 5.08343C122.075 5.20284 121.984 5.30997 121.894 5.40483L119.083 8.37239L118.54 7.85793L122.49 3.68825L122.949 4.12292C123.003 4.17428 123.04 4.21952 123.058 4.25864C123.079 4.29767 123.081 4.35421 123.062 4.42829L122.09 8.24599C122.069 8.32199 122.044 8.39907 122.014 8.47722C121.984 8.55537 121.953 8.6326 121.921 8.70891C122.07 8.63321 122.222 8.56781 122.377 8.51269L126.108 7.31421C126.179 7.28965 126.234 7.28629 126.272 7.30413C126.314 7.32186 126.362 7.3564 126.416 7.40775L126.875 7.84243ZM127.137 12.1623C127.293 12.3108 127.45 12.4207 127.607 12.492C127.765 12.565 127.919 12.6024 128.068 12.604C128.221 12.6055 128.366 12.5743 128.504 12.5102C128.644 12.4442 128.773 12.3482 128.892 12.2224C129.133 11.9688 129.242 11.6943 129.221 11.3987C129.202 11.1049 129.031 10.8058 128.71 10.5014L128.066 9.89062L126.492 11.5515L127.137 12.1623ZM129.17 10.0165C129.437 10.2696 129.64 10.5206 129.778 10.7696C129.917 11.0187 129.997 11.2617 130.019 11.4988C130.042 11.734 130.009 11.9612 129.918 12.1806C129.83 12.4018 129.693 12.6101 129.508 12.8057C129.323 13.0012 129.118 13.1491 128.895 13.2495C128.673 13.3479 128.44 13.3938 128.197 13.3871C127.953 13.3805 127.701 13.3165 127.442 13.1953C127.186 13.0739 126.93 12.8922 126.674 12.6501L126.03 12.0393L124.574 13.5754L123.956 12.9894L127.906 8.81972L129.17 10.0165ZM130.701 15.2802C130.859 15.4306 131.017 15.5433 131.174 15.6183C131.332 15.6951 131.485 15.7372 131.633 15.7445C131.782 15.75 131.923 15.7235 132.055 15.6652C132.189 15.605 132.312 15.5159 132.424 15.3978C132.652 15.1578 132.744 14.9016 132.701 14.6292C132.659 14.3587 132.481 14.074 132.165 13.775L131.582 13.2221L130.137 14.7465L130.701 15.2802ZM130.599 19.2838L130.048 18.7611C129.937 18.6565 129.898 18.5369 129.93 18.4021L130.27 15.9794C130.283 15.8998 130.279 15.832 130.259 15.776C130.24 15.718 130.192 15.6523 130.115 15.579L129.711 15.1966L128.091 16.9068L127.472 16.3208L131.423 12.1511L132.625 13.2901C132.894 13.545 133.099 13.7923 133.239 14.0318C133.383 14.2713 133.47 14.5019 133.498 14.7237C133.531 14.9454 133.509 15.1563 133.433 15.3564C133.359 15.5584 133.238 15.7484 133.069 15.9265C132.932 16.0717 132.78 16.1871 132.615 16.2726C132.449 16.3582 132.274 16.411 132.09 16.4311C131.909 16.4511 131.722 16.4391 131.529 16.3953C131.335 16.3515 131.142 16.2747 130.948 16.1648C130.981 16.2846 130.987 16.4128 130.964 16.5492L130.599 19.2838ZM136.951 21.3451C136.655 21.6568 136.334 21.8956 135.985 22.0616C135.641 22.2274 135.288 22.319 134.926 22.3363C134.566 22.3517 134.21 22.2915 133.857 22.1558C133.505 22.02 133.174 21.8054 132.864 21.512C132.556 21.2204 132.324 20.9012 132.167 20.5546C132.013 20.2098 131.934 19.8573 131.93 19.4972C131.929 19.1369 132.002 18.7794 132.147 18.4246C132.294 18.0679 132.515 17.7337 132.81 17.422C133.104 17.1123 133.424 16.8745 133.773 16.7085C134.121 16.5426 134.474 16.451 134.832 16.4338C135.194 16.4165 135.551 16.4757 135.903 16.6114C136.26 16.747 136.592 16.9607 136.9 17.2523C137.209 17.5457 137.441 17.8658 137.593 18.2126C137.748 18.5574 137.826 18.9108 137.829 19.2729C137.833 19.6331 137.76 19.9906 137.611 20.3455C137.464 20.7022 137.244 21.0354 136.951 21.3451ZM136.318 20.7454C136.552 20.4976 136.73 20.2429 136.849 19.9813C136.968 19.7196 137.03 19.4605 137.034 19.2038C137.041 18.949 136.99 18.7004 136.881 18.4581C136.775 18.2177 136.612 17.9938 136.394 17.7866C136.175 17.5793 135.942 17.4281 135.694 17.3329C135.448 17.2396 135.197 17.202 134.941 17.2203C134.685 17.2385 134.429 17.3142 134.175 17.4475C133.92 17.5807 133.675 17.7713 133.44 18.019C133.204 18.2688 133.026 18.5244 132.906 18.7861C132.789 19.0458 132.728 19.304 132.723 19.5606C132.719 19.8173 132.77 20.0658 132.877 20.3063C132.987 20.5467 133.151 20.7705 133.37 20.9777C133.589 21.185 133.82 21.3362 134.064 21.4315C134.312 21.5267 134.563 21.5642 134.817 21.5442C135.073 21.5259 135.328 21.4512 135.581 21.3199C135.835 21.1866 136.081 20.9951 136.318 20.7454ZM143.016 23.1352L137.37 25.6983L136.815 25.1728L139.07 19.3965L139.563 19.8642C139.618 19.9155 139.648 19.9703 139.656 20.0286C139.665 20.0887 139.658 20.1483 139.635 20.2074L138.076 24.1089C138.038 24.2042 137.991 24.3054 137.938 24.4125C137.886 24.5214 137.827 24.6315 137.762 24.7426C137.868 24.67 137.972 24.6031 138.074 24.5418C138.176 24.4806 138.274 24.428 138.367 24.384L142.176 22.6147C142.226 22.5888 142.282 22.5778 142.345 22.5818C142.409 22.5876 142.467 22.6153 142.519 22.6648L143.016 23.1352ZM142.649 29.7471L142.17 30.2466L139.586 27.7981L143.536 23.6285L146.121 26.077L145.645 26.5793L143.682 24.7195L142.43 26.0407L144.01 27.5373L143.55 28.0222L141.971 26.5256L140.683 27.8845L142.649 29.7471ZM148.551 32.3361C148.256 32.6477 147.937 32.8836 147.594 33.0438C147.253 33.2058 146.905 33.2925 146.549 33.304C146.194 33.3136 145.843 33.2485 145.494 33.1089C145.145 32.9693 144.815 32.7528 144.506 32.4594L142.938 30.9738L146.888 26.8041L148.456 28.2897C148.766 28.5831 149 28.9003 149.158 29.2412C149.316 29.5822 149.399 29.9308 149.407 30.2871C149.417 30.6414 149.349 30.9941 149.204 31.3451C149.062 31.696 148.845 32.0263 148.551 32.3361ZM147.918 31.7363C148.153 31.4885 148.329 31.2348 148.447 30.9751C148.566 30.7134 148.627 30.4553 148.629 30.2005C148.636 29.9457 148.584 29.6981 148.474 29.4578C148.365 29.2192 148.202 28.9964 147.983 28.7891L147.036 27.8922L144.032 31.0631L144.979 31.9599C145.197 32.1672 145.429 32.3184 145.673 32.4137C145.919 32.5108 146.168 32.5503 146.42 32.5322C146.676 32.514 146.931 32.4392 147.184 32.3079C147.437 32.1765 147.682 31.986 147.918 31.7363Z" fill="black"/>
<path d="M160.231 122.594C160.091 122.777 159.997 122.963 159.948 123.154C159.9 123.345 159.892 123.533 159.926 123.716C159.962 123.902 160.036 124.079 160.148 124.249C160.262 124.42 160.413 124.577 160.599 124.72L163.359 126.832L162.844 127.506L160.084 125.393C159.817 125.189 159.602 124.958 159.441 124.7C159.279 124.442 159.176 124.17 159.133 123.885C159.089 123.599 159.107 123.308 159.187 123.01C159.268 122.712 159.416 122.421 159.633 122.137C159.851 121.854 160.093 121.634 160.359 121.479C160.626 121.324 160.902 121.23 161.189 121.197C161.476 121.165 161.765 121.193 162.056 121.282C162.348 121.37 162.627 121.517 162.894 121.721L165.654 123.834L165.136 124.51L162.379 122.4C162.193 122.257 162.003 122.152 161.809 122.085C161.614 122.02 161.422 121.994 161.234 122.007C161.048 122.023 160.869 122.079 160.697 122.176C160.526 122.273 160.37 122.412 160.231 122.594ZM159.167 132.311L154.605 128.82L154.868 128.477C154.908 128.424 154.952 128.387 154.999 128.365C155.044 128.346 155.101 128.334 155.171 128.331L160.475 128.305C160.414 128.265 160.356 128.225 160.299 128.185C160.241 128.147 160.187 128.11 160.138 128.073L157.01 125.678L157.464 125.084L162.026 128.575L161.758 128.924C161.713 128.984 161.671 129.022 161.634 129.041C161.599 129.061 161.543 129.07 161.466 129.069L156.155 129.099C156.221 129.139 156.284 129.179 156.345 129.219C156.406 129.262 156.462 129.303 156.512 129.342L159.619 131.72L159.167 132.311ZM152.282 133.883C152.253 133.921 152.213 133.943 152.162 133.947L151.666 133.991C151.588 133.636 151.592 133.278 151.677 132.916C151.76 132.557 151.946 132.189 152.235 131.812C152.488 131.482 152.774 131.226 153.094 131.044C153.413 130.865 153.748 130.759 154.099 130.725C154.449 130.694 154.806 130.736 155.171 130.851C155.537 130.966 155.891 131.155 156.234 131.417C156.577 131.68 156.85 131.974 157.053 132.301C157.255 132.63 157.383 132.972 157.438 133.326C157.493 133.68 157.473 134.037 157.378 134.398C157.282 134.761 157.106 135.109 156.852 135.441C156.604 135.765 156.33 136.013 156.032 136.183C155.733 136.354 155.424 136.466 155.106 136.518L154.962 136.055C154.95 136.022 154.945 135.988 154.948 135.954C154.95 135.921 154.964 135.887 154.992 135.851C155.022 135.811 155.079 135.778 155.161 135.754C155.242 135.732 155.341 135.695 155.458 135.643C155.575 135.596 155.703 135.522 155.842 135.424C155.981 135.326 156.125 135.18 156.272 134.987C156.446 134.761 156.564 134.522 156.628 134.272C156.694 134.024 156.704 133.773 156.659 133.521C156.615 133.272 156.513 133.026 156.353 132.782C156.193 132.543 155.977 132.319 155.704 132.11C155.427 131.897 155.15 131.748 154.874 131.661C154.598 131.574 154.332 131.542 154.076 131.564C153.821 131.587 153.582 131.661 153.361 131.788C153.14 131.914 152.947 132.085 152.782 132.301C152.682 132.433 152.599 132.556 152.534 132.671C152.47 132.79 152.421 132.905 152.386 133.016C152.35 133.129 152.326 133.244 152.315 133.359C152.306 133.477 152.307 133.6 152.319 133.73C152.32 133.758 152.318 133.785 152.312 133.81C152.308 133.838 152.298 133.862 152.282 133.883ZM148.887 137.43L148.34 137.007L150.504 134.179L155.065 137.67L152.902 140.497L152.352 140.077L153.995 137.93L152.55 136.823L151.228 138.551L150.697 138.146L152.02 136.417L150.533 135.28L148.887 137.43ZM149.072 140.948C148.939 141.121 148.843 141.29 148.785 141.454C148.725 141.619 148.699 141.776 148.708 141.923C148.718 142.072 148.759 142.209 148.831 142.335C148.905 142.462 149.006 142.575 149.136 142.674C149.398 142.875 149.663 142.94 149.929 142.868C150.194 142.799 150.458 142.591 150.722 142.246L151.211 141.608L149.543 140.331L149.072 140.948ZM145.079 141.267L145.541 140.664C145.634 140.543 145.749 140.492 145.886 140.509L148.331 140.592C148.411 140.597 148.479 140.586 148.532 140.56C148.588 140.535 148.648 140.481 148.713 140.396L149.051 139.955L147.18 138.523L147.698 137.846L152.259 141.337L151.253 142.652C151.027 142.946 150.803 143.176 150.58 143.341C150.357 143.509 150.136 143.619 149.919 143.671C149.702 143.727 149.49 143.727 149.283 143.673C149.074 143.621 148.872 143.52 148.678 143.371C148.519 143.25 148.388 143.111 148.286 142.955C148.183 142.8 148.112 142.631 148.073 142.45C148.034 142.273 148.026 142.085 148.05 141.888C148.073 141.691 148.129 141.49 148.218 141.287C148.102 141.332 147.975 141.351 147.837 141.343L145.079 141.267ZM146.356 147.879L147.464 146.431L143.468 143.373L143.984 142.699L147.98 145.757L149.093 144.303L149.659 144.735L146.921 148.312L146.356 147.879ZM142.044 148.755L144.331 149.432C144.489 149.476 144.679 149.544 144.9 149.636C144.827 149.543 144.761 149.454 144.702 149.369C144.642 149.285 144.59 149.209 144.546 149.138L143.298 147.116L142.044 148.755ZM139.321 148.792L139.72 148.271C139.765 148.211 139.817 148.174 139.876 148.159C139.935 148.143 139.994 148.145 140.054 148.164L141.42 148.57L142.959 146.559L142.21 145.346C142.181 145.3 142.165 145.244 142.162 145.178C142.161 145.114 142.182 145.053 142.226 144.996L142.625 144.475L145.796 149.783L145.273 150.465L139.321 148.792ZM138.365 150.041L138.885 149.361L143.447 152.852L142.927 153.532L138.365 150.041ZM139.206 158.393L134.645 154.902L134.907 154.559C134.948 154.506 134.992 154.469 135.038 154.448C135.083 154.428 135.141 154.417 135.211 154.413L140.514 154.387C140.454 154.348 140.395 154.308 140.339 154.268C140.28 154.23 140.227 154.192 140.178 154.155L137.049 151.761L137.504 151.167L142.065 154.657L141.798 155.007C141.752 155.066 141.711 155.105 141.674 155.123C141.638 155.143 141.582 155.152 141.506 155.151L136.194 155.181C136.261 155.222 136.324 155.262 136.384 155.301C136.445 155.345 136.501 155.386 136.552 155.425L139.659 157.802L139.206 158.393Z" fill="black"/>
<path d="M32.7815 168.751L37.5574 165.091L38.1849 165.534L36.8726 169.822C36.8496 169.91 36.8132 170.01 36.7637 170.122C36.8584 170.039 36.9404 169.971 37.0099 169.919L40.623 167.254L41.2472 167.695L39.3996 173.421L38.8179 173.011C38.7569 172.968 38.7164 172.916 38.6965 172.857C38.6751 172.799 38.6756 172.741 38.6979 172.681L39.9892 168.888C40.0149 168.815 40.0465 168.737 40.0842 168.656C40.1197 168.574 40.1574 168.488 40.1975 168.398C40.1269 168.466 40.0586 168.53 39.9927 168.592C39.9245 168.651 39.858 168.704 39.7932 168.749L36.518 171.143C36.4741 171.177 36.42 171.196 36.3555 171.2C36.2889 171.202 36.2262 171.182 36.1673 171.14L35.968 171C35.907 170.957 35.8676 170.906 35.8499 170.848C35.8322 170.79 35.8316 170.73 35.848 170.67L37.0086 166.785C37.054 166.637 37.1152 166.476 37.1923 166.302C37.0601 166.434 36.9357 166.55 36.8191 166.651L33.6746 169.137C33.633 169.172 33.5788 169.191 33.5122 169.193C33.4455 169.195 33.3828 169.175 33.324 169.134L32.7815 168.751ZM29.4708 162.9C29.7183 162.549 30.0025 162.267 30.3234 162.052C30.6405 161.839 30.9769 161.698 31.3323 161.629C31.6863 161.562 32.0475 161.57 32.4159 161.654C32.7844 161.738 33.1429 161.903 33.4915 162.149C33.8379 162.393 34.1135 162.676 34.318 162.996C34.5204 163.315 34.6495 163.653 34.7051 164.009C34.7571 164.365 34.7367 164.729 34.644 165.101C34.5497 165.475 34.3788 165.838 34.1313 166.189C33.8853 166.537 33.6019 166.819 33.281 167.033C32.9601 167.247 32.6238 167.388 32.2721 167.457C31.9166 167.526 31.5546 167.518 31.1862 167.434C30.814 167.351 30.4547 167.188 30.1083 166.943C29.7597 166.697 29.4849 166.413 29.2841 166.092C29.0817 165.773 28.9534 165.435 28.8993 165.077C28.8436 164.721 28.864 164.356 28.9604 163.984C29.0547 163.61 29.2248 163.248 29.4708 162.9ZM30.1833 163.403C29.9865 163.682 29.8478 163.959 29.7672 164.235C29.6867 164.511 29.6626 164.776 29.6951 165.031C29.7254 165.284 29.8115 165.523 29.9535 165.747C30.0934 165.97 30.2864 166.168 30.5326 166.342C30.7788 166.515 31.0314 166.632 31.2902 166.69C31.5469 166.747 31.8007 166.749 32.0515 166.694C32.3022 166.639 32.5442 166.528 32.7773 166.359C33.0103 166.191 33.2253 165.967 33.4221 165.688C33.6204 165.407 33.7599 165.128 33.8404 164.852C33.9195 164.579 33.9427 164.314 33.9103 164.06C33.8778 163.805 33.7917 163.566 33.6518 163.344C33.5083 163.122 33.3134 162.924 33.0672 162.75C32.821 162.576 32.5703 162.46 32.3151 162.4C32.0562 162.342 31.8025 162.341 31.5539 162.397C31.3031 162.452 31.0619 162.562 30.8304 162.728C30.5973 162.897 30.3816 163.122 30.1833 163.403ZM27.2065 161.429C27.0279 161.303 26.8556 161.214 26.6898 161.163C26.5218 161.109 26.3643 161.09 26.2175 161.103C26.0691 161.12 25.9336 161.166 25.8109 161.243C25.6868 161.321 25.5778 161.427 25.484 161.56C25.2933 161.83 25.2389 162.097 25.3207 162.36C25.4003 162.622 25.6177 162.878 25.9729 163.129L26.6298 163.593L27.8406 161.877L27.2065 161.429ZM26.7327 157.453L27.3536 157.891C27.4778 157.978 27.5336 158.091 27.5211 158.229L27.5328 160.676C27.5314 160.756 27.5448 160.823 27.573 160.875C27.5997 160.93 27.6566 160.988 27.7437 161.05L28.198 161.37L29.5564 159.445L30.2525 159.936L26.9408 164.63L25.5877 163.675C25.2849 163.461 25.0468 163.246 24.8735 163.029C24.6965 162.813 24.5779 162.597 24.5178 162.381C24.4539 162.167 24.4451 161.955 24.4914 161.746C24.5354 161.535 24.6282 161.33 24.7696 161.129C24.8849 160.966 25.0184 160.83 25.17 160.722C25.3215 160.613 25.4871 160.536 25.6666 160.49C25.8425 160.444 26.0293 160.429 26.2272 160.445C26.425 160.46 26.6276 160.508 26.8348 160.589C26.7846 160.476 26.7609 160.35 26.7638 160.211L26.7327 157.453ZM20.9286 159.241C20.9765 159.22 21.0186 159.209 21.0549 159.208C21.0911 159.208 21.1278 159.221 21.1648 159.247C21.204 159.274 21.2364 159.323 21.2619 159.393C21.2859 159.466 21.3206 159.551 21.3661 159.648C21.4079 159.746 21.4688 159.85 21.5488 159.958C21.6272 160.069 21.7395 160.176 21.8854 160.279C22.0227 160.376 22.1567 160.443 22.2874 160.479C22.4144 160.517 22.5351 160.529 22.6494 160.515C22.7622 160.503 22.8671 160.467 22.9641 160.409C23.0573 160.35 23.1386 160.272 23.2078 160.174C23.2969 160.048 23.3391 159.921 23.3344 159.794C23.3274 159.665 23.2924 159.534 23.2294 159.401C23.1663 159.269 23.0837 159.134 22.9815 158.996C22.8794 158.859 22.7755 158.717 22.6699 158.571C22.5627 158.427 22.4642 158.277 22.3743 158.122C22.2845 157.968 22.2203 157.806 22.1818 157.639C22.1418 157.474 22.1379 157.301 22.17 157.121C22.1985 156.942 22.2811 156.756 22.4179 156.562C22.564 156.355 22.7368 156.186 22.9363 156.056C23.1336 155.925 23.3475 155.839 23.5779 155.799C23.8083 155.759 24.0503 155.77 24.3039 155.832C24.5539 155.894 24.8041 156.013 25.0547 156.19C25.205 156.296 25.3402 156.415 25.4603 156.545C25.5819 156.673 25.6875 156.808 25.777 156.95C25.8649 157.093 25.9383 157.241 25.9971 157.394C26.0523 157.547 26.0904 157.701 26.1114 157.856L25.6768 158.049C25.6387 158.061 25.6005 158.067 25.562 158.066C25.5214 158.063 25.4837 158.05 25.4488 158.025C25.4031 157.993 25.3677 157.932 25.3427 157.843C25.3155 157.752 25.2791 157.646 25.2334 157.526C25.1841 157.406 25.1153 157.279 25.0271 157.145C24.9368 157.009 24.8033 156.879 24.6268 156.755C24.483 156.653 24.3414 156.581 24.202 156.538C24.061 156.498 23.9278 156.485 23.8023 156.501C23.6732 156.518 23.5525 156.561 23.4404 156.632C23.3283 156.703 23.2292 156.8 23.1431 156.922C23.0462 157.059 22.9986 157.194 23.0003 157.325C23.002 157.457 23.0344 157.589 23.0974 157.722C23.1605 157.855 23.2439 157.989 23.3476 158.124C23.4513 158.259 23.5575 158.397 23.6662 158.539C23.7733 158.684 23.8726 158.832 23.964 158.985C24.0554 159.137 24.1203 159.297 24.1588 159.465C24.1957 159.634 24.1958 159.812 24.1591 159.999C24.1208 160.187 24.0278 160.386 23.8802 160.595C23.7619 160.763 23.6146 160.902 23.4386 161.013C23.2625 161.123 23.0701 161.195 22.8613 161.227C22.6489 161.26 22.4258 161.248 22.192 161.19C21.9567 161.135 21.7214 161.025 21.4861 160.859C21.2224 160.673 21.0106 160.46 20.8505 160.219C20.6867 159.98 20.5784 159.724 20.5257 159.452L20.9286 159.241ZM19.2625 153.028L19.6648 152.465L22.5735 154.518L19.2617 159.211L16.353 157.158L16.752 156.593L18.9613 158.152L20.0106 156.665L18.2327 155.41L18.6179 154.864L20.3958 156.119L21.4751 154.59L19.2625 153.028ZM11.6458 153.837L14.9575 149.143L15.3105 149.393C15.365 149.431 15.4038 149.473 15.427 149.519C15.448 149.563 15.4617 149.62 15.468 149.69L15.6993 154.988C15.7364 154.927 15.7739 154.866 15.8117 154.808C15.8473 154.749 15.8828 154.694 15.9182 154.644L18.1898 151.424L18.801 151.856L15.4892 156.549L15.1297 156.295C15.0687 156.252 15.0283 156.212 15.0086 156.175C14.9873 156.141 14.9758 156.085 14.9742 156.009L14.7386 150.702C14.7006 150.77 14.663 150.835 14.6258 150.897C14.585 150.96 14.5461 151.017 14.5092 151.069L12.2537 154.266L11.6458 153.837ZM10.4855 146.835L10.8878 146.272L13.7965 148.324L10.4848 153.017L7.57604 150.965L7.97502 150.399L10.1843 151.958L11.2337 150.471L9.45576 149.217L9.8409 148.671L11.6188 149.926L12.6981 148.396L10.4855 146.835ZM4.27305 145.119C4.52058 144.768 4.80248 144.489 5.11872 144.281C5.43279 144.072 5.76526 143.936 6.11613 143.874C6.46546 143.814 6.82282 143.827 7.18819 143.916C7.55356 144.004 7.91056 144.171 8.25917 144.417L10.024 145.662L6.71226 150.355L4.94742 149.11C4.59881 148.864 4.32176 148.584 4.11629 148.269C3.91081 147.954 3.7787 147.621 3.71995 147.27C3.65967 146.92 3.67621 146.561 3.76958 146.193C3.85923 145.826 4.02705 145.468 4.27305 145.119ZM4.98552 145.622C4.78872 145.901 4.65081 146.177 4.57178 146.451C4.49122 146.727 4.46793 146.991 4.50193 147.244C4.53221 147.497 4.61914 147.734 4.7627 147.956C4.90409 148.177 5.09788 148.374 5.34409 148.548L6.40953 149.3L8.92794 145.731L7.8625 144.979C7.61629 144.805 7.36561 144.689 7.11045 144.629C6.85311 144.569 6.60091 144.565 6.35384 144.619C6.10305 144.674 5.86189 144.785 5.63034 144.951C5.3988 145.117 5.18386 145.341 4.98552 145.622Z" fill="black"/>
<path d="M156.706 40.5445C156.455 40.4306 156.158 40.5422 156.044 40.7938L154.189 44.8934C154.075 45.145 154.187 45.4412 154.438 45.5551C154.69 45.669 154.986 45.5574 155.1 45.3058L156.749 41.6617L160.393 43.3111C160.645 43.425 160.941 43.3134 161.055 43.0618C161.169 42.8102 161.057 42.514 160.806 42.4001L156.706 40.5445ZM51.712 173.591C51.4862 173.75 51.4322 174.062 51.5913 174.288L54.1838 177.966C54.3428 178.192 54.6548 178.246 54.8805 178.087C55.1062 177.928 55.1602 177.616 55.0011 177.39L52.6967 174.121L55.9663 171.816C56.192 171.657 56.246 171.345 56.0869 171.12C55.9278 170.894 55.6159 170.84 55.3902 170.999L51.712 173.591ZM163.99 119.598C167.242 103.341 168.754 92.2827 167.811 80.9585C166.867 69.6361 163.471 58.0824 156.968 40.8237L156.032 41.1763C162.529 58.4176 165.883 69.8639 166.814 81.0415C167.746 92.2173 166.258 103.159 163.01 119.402L163.99 119.598ZM135.248 158.568C119.62 167.696 107.263 172.88 94.6128 175.062C81.9619 177.244 68.9784 176.432 52.0853 173.507L51.9147 174.493C68.8572 177.426 81.9697 178.258 94.7828 176.047C107.597 173.837 120.071 168.591 135.752 159.432L135.248 158.568Z" fill="#D7D8D8"/>
</svg>
